<svg width="116" height="59" fill="none" xmlns="http://www.w3.org/2000/svg"><path d="M114.5 29.5c0 7.285-5.841 14.27-16.168 19.523C88.088 54.233 73.83 57.5 58 57.5c-15.83 0-30.088-3.267-40.332-8.477C7.34 43.77 1.5 36.785 1.5 29.5S7.34 15.23 17.668 9.977C27.912 4.767 42.17 1.5 58 1.5c15.83 0 30.088 3.267 40.332 8.477C108.66 15.23 114.5 22.215 114.5 29.5z" stroke="#FFF500" stroke-width="3"/><path d="M19 32.46v-4.163h11.536v4.162H19zM33.057 38.405V33.65l6.951-4.311c1.637-.991 2.78-1.853 3.431-2.587.671-.753 1.006-1.526 1.006-2.319 0-.693-.246-1.258-.74-1.694-.473-.456-1.113-.684-1.922-.684-1.242 0-2.16.397-2.75 1.19-.238.316-.405.713-.504 1.188h-5.62a9.232 9.232 0 011.39-3.716C35.916 18.24 38.412 17 41.784 17c2.603 0 4.654.674 6.152 2.022 1.519 1.347 2.278 3.052 2.278 5.113 0 1.705-.483 3.171-1.45 4.4-.965 1.21-2.405 2.369-4.318 3.479l-2.07 1.189-1.184.446v.297l2.071-.297h6.951v4.756H33.057zM55.516 35.938c-1.952-2.042-2.928-4.688-2.928-7.938s.976-5.896 2.928-7.938C57.488 18.021 59.963 17 62.94 17c2.978 0 5.443 1.02 7.395 3.062 1.972 2.042 2.958 4.688 2.958 7.938s-.986 5.896-2.958 7.938C68.383 37.979 65.918 39 62.94 39c-2.977 0-5.452-1.02-7.424-3.062zm4.082-12.368c-.828 1.011-1.242 2.488-1.242 4.43 0 1.942.414 3.419 1.242 4.43.828 1.01 1.942 1.516 3.342 1.516 1.4 0 2.515-.505 3.343-1.516.828-1.011 1.242-2.488 1.242-4.43 0-1.942-.414-3.419-1.242-4.43-.828-1.01-1.942-1.516-3.343-1.516-1.4 0-2.514.506-3.342 1.516zM76.999 25.949c-.986-.972-1.48-2.17-1.48-3.598 0-1.427.494-2.626 1.48-3.597.986-.971 2.218-1.457 3.697-1.457s2.712.486 3.698 1.457c.985.971 1.478 2.17 1.478 3.597s-.493 2.627-1.478 3.598c-.987.97-2.219 1.456-3.698 1.456S77.985 26.92 77 25.95zm1.627 12.456l12.423-20.81h3.845l-12.423 20.81h-3.846zm.798-17.332c-.335.337-.503.763-.503 1.278 0 .516.168.942.503 1.279.335.337.76.505 1.272.505.513 0 .937-.168 1.272-.505.335-.337.503-.763.503-1.279 0-.515-.168-.941-.503-1.278-.335-.337-.76-.505-1.272-.505-.513 0-.937.168-1.272.505zm9.702 16.173c-.986-.971-1.479-2.17-1.479-3.597s.493-2.627 1.48-3.598c.985-.97 2.218-1.456 3.697-1.456s2.711.485 3.697 1.456c.986.972 1.479 2.17 1.479 3.598 0 1.427-.493 2.626-1.479 3.597-.986.971-2.218 1.457-3.697 1.457-1.48 0-2.712-.486-3.698-1.457zm2.426-4.876c-.336.337-.503.763-.503 1.279 0 .515.167.941.503 1.278.335.337.759.505 1.272.505.512 0 .936-.168 1.272-.505.335-.337.502-.763.502-1.278 0-.516-.167-.942-.502-1.279-.336-.337-.76-.505-1.272-.505-.513 0-.937.168-1.272.505z" fill="#FFF500"/></svg>